<?xml version="1.0" encoding="UTF-8"?>
<svg width="264px" height="48px" viewBox="0 0 264 48" version="1.1" xmlns="http://www.w3.org/2000/svg" xmlns:xlink="http://www.w3.org/1999/xlink">
    <title>53 Logo@1x</title>
    <g id="Symbols" stroke="none" stroke-width="1" fill="none" fill-rule="evenodd">
        <g id="53-Logo" fill-rule="nonzero">
            <g id="wordmark" transform="translate(69, 14.32)" fill="#FFFFFF">
                <path d="M185.115446,15.4890757 L180.218191,15.4890757 L180.218191,3.87226891 L185.115446,3.87226891 C188.445604,3.87226891 190.502381,6.29236842 190.502381,9.68074705 C190.502381,13.0689761 188.445604,15.4890757 185.115446,15.4890757 M184.57672,0 L175.81068,0 L175.81068,19.3613445 L184.57672,19.3613445 C190.404405,19.3613445 194.420168,15.4891056 194.420168,9.68074705 C194.420168,3.87223899 190.404405,0 184.57672,0" id="D"></path>
                <path d="M164.073672,7.74453782 L158.670364,7.74453782 L158.670364,3.87226891 L164.073672,3.87226891 C166.373282,3.87226891 167.485383,4.03053823 167.485383,5.8083226 C167.485383,7.59886543 166.446408,7.74453782 164.073672,7.74453782 L164.073672,7.74453782 Z M154.262853,0 L154.262853,19.3613445 L158.670245,19.3613445 L158.670245,11.3366014 L162.781468,11.3366014 L168.464788,19.3613445 L173.851787,19.3613445 L167.926104,10.9945843 C170.999213,10.3324223 172.306668,8.67971416 172.306668,5.80395398 C172.306668,1.72506659 169.933818,0 164.057244,0 L154.262853,0 Z" id="R"></path>
                <polygon id="I" points="145.447217 19.3612996 149.854608 19.3612996 149.854608 1.49563425e-05 145.447217 1.49563425e-05"></polygon>
                <polygon id="H" points="136.632255 7.32968476 127.817322 7.32968476 127.817322 2.99126851e-05 123.40978 2.99126851e-05 123.40978 19.3613146 127.817322 19.3613146 127.817322 11.2018819 136.632255 11.2018819 136.632255 19.3613146 141.039645 19.3613146 141.039645 2.99126851e-05 136.632255 2.99126851e-05"></polygon>
                <polygon id="T" points="100.882606 5.98253705e-05 119.491975 5.98253705e-05 119.491975 3.87225695 112.391062 3.87225695 112.391062 19.3613445 107.98352 19.3613445 107.98352 3.87225695 100.882606 3.87225695"></polygon>
                <polygon id="H" points="72.478725 11.2019118 81.2936574 11.2019118 81.2936574 19.3613445 85.7011993 19.3613445 85.7011993 5.98253705e-05 81.2936574 5.98253705e-05 81.2936574 7.32971467 72.478725 7.32971467 72.478725 5.98253705e-05 68.0713344 5.98253705e-05 68.0713344 19.3613445 72.478725 19.3613445"></polygon>
                <polygon id="T" points="46.5235286 5.98253705e-05 64.1535447 5.98253705e-05 64.1535447 3.87225695 57.0526311 3.87225695 57.0526311 19.3613445 52.6450892 19.3613445 52.6450892 3.87225695 45.4741137 3.87225695"></polygon>
                <polygon id="F" points="32.3216105 11.201852 39.9612287 11.201852 40.9896098 7.32965485 32.3216105 7.32965485 32.3216105 3.87219712 42.0670189 3.87219712 43.0954 0 27.91422 0 27.91422 19.3612847 32.3216105 19.3612847"></polygon>
                <polygon id="I" points="19.0991967 19.3612996 23.5065873 19.3612996 23.5065873 1.49563425e-05 19.0991967 1.49563425e-05"></polygon>
                <polygon id="F" points="4.40754187 11.2019118 12.2431214 11.2019118 12.2431214 7.32971467 4.40754187 7.32971467 4.40754187 3.87225695 15.1813314 3.87225695 15.1813314 5.98253705e-05 0 5.98253705e-05 0 19.3613445 4.40754187 19.3613445"></polygon>
            </g>
            <g id="bug/full-color" transform="translate(-0, 0)">
                <path d="M0,0 L0,33.8909091 C0,41.6727273 6.35457642,48 14.169975,48 L54.0504202,48 L54.0504202,14.1090909 C54.0504202,6.32727273 47.6958438,0 39.8804451,0 L0,0 L0,0 Z" id="Outer-Shield" fill="#26D07C"></path>
                <path d="M2.19123325,2.18181819 L39.8804451,2.18181819 C46.4541449,2.18181819 51.859187,7.56363637 51.859187,14.1090909 L51.859187,45.8181819 L14.169975,45.8181819 C7.59627527,45.8181819 2.19123325,40.4363637 2.19123325,33.8909091 L2.19123325,2.18181819" id="Middle-Shield" fill="#FFFFFF"></path>
                <g id="Utility/53-elements/Stencil" transform="translate(4.3825, 4.36)">
                    <path d="M35.1327827,0 L0,0 L0,29.1636434 C0,34.690972 4.52853353,39.2727273 10.1528563,39.2727273 L45.2854871,39.2727273 L45.2854871,10.1090839 C45.2854871,4.58175523 40.7569536,0 35.1327827,0 L35.1327827,0 Z" id="Fill-4-Copy-path" fill="#1D4094"></path>
                    <path d="M34.4712466,33.0117342 L26.1551833,33.0117342 C26.1551833,33.0117342 31.0886029,31.9643338 30.2428319,28.054107 C29.6790335,25.4703641 26.5074657,24.0739271 26.5074657,24.0739271 C31.6522545,23.0266723 30.3132884,19.1162998 30.3132884,19.1162998 C30.3132884,19.1162998 29.4675174,16.2534732 26.1551833,15.1362655 L34.6824692,15.1362655 C36.9379565,15.1362655 38.7701178,16.9518371 39.3339162,18.4180814 C39.9681711,20.3034603 39.4043727,23.2359487 35.6693,24.0041199 C37.5017549,24.7722911 39.0520903,25.6799315 39.474976,27.8445396 C39.9681711,29.9391949 38.4178356,33.0117342 34.4712466,33.0117342 L34.4712466,33.0117342 Z M17.4834617,33.64 L25.0946669,5.64 L26.8565186,5.64 L19.2453135,33.64 L17.4834617,33.64 Z M6.0699566,24.3352684 C11.4964246,23.2180606 10.0870019,18.8888443 10.0870019,18.8888443 C10.0870019,18.8888443 9.24123094,15.7467885 5.71752755,14.5597735 L14.1068362,14.5597735 C16.648406,14.5597735 18.6875332,16.5148143 19.1105655,18.6795679 C19.7446736,21.8216236 17.2076541,24.3352684 14.9524604,24.3352684 L6.0699566,24.3352684 Z M5.71752755,12.6922828 L17.7686636,12.6922828 L17.7686636,6.33821846 L5.71752755,6.33821846 L5.71752755,12.6922828 Z" id="Fill-4-Copy" fill="#FFFFFF"></path>
                </g>
            </g>
        </g>
    </g>
</svg>